<svg xmlns="http://www.w3.org/2000/svg" viewBox="0 0 512 512">
  <defs>
    <linearGradient id="grad" x1="0%" y1="0%" x2="100%" y2="100%">
      <stop offset="0%" style="stop-color:#e94560"/>
      <stop offset="100%" style="stop-color:#0f3460"/>
    </linearGradient>
  </defs>
  <rect width="512" height="512" rx="100" fill="url(#grad)"/>
  <g transform="translate(256,220)">
    <!-- 定位圖示 -->
    <path d="M0-140c-55.23 0-100 44.77-100 100 0 75 100 186 100 186s100-111 100-186c0-55.23-44.77-100-100-100zm0 136c-19.85 0-36-16.15-36-36s16.15-36 36-36 36 16.15 36 36-16.15 36-36 36z" fill="white"/>
    <!-- 汽車圖示 -->
    <g transform="translate(0,120)">
      <rect x="-70" y="-20" width="140" height="50" rx="15" fill="white" opacity="0.9"/>
      <circle cx="-40" cy="30" r="18" fill="white"/>
      <circle cx="40" cy="30" r="18" fill="white"/>
      <circle cx="-40" cy="30" r="10" fill="#0f3460"/>
      <circle cx="40" cy="30" r="10" fill="#0f3460"/>
      <rect x="-55" y="-35" width="110" height="25" rx="8" fill="white" opacity="0.7"/>
    </g>
  </g>
</svg>
